<svg width="351" height="110" viewBox="0 0 351 110" fill="none" xmlns="http://www.w3.org/2000/svg">
<path d="M45.7094 35.549C58.2525 42.7855 74.3262 51.6384 75.8638 62.8114C77.1927 72.4684 74.7702 81.4229 69.8809 88.0087C68.6699 89.6398 67.3077 91.1256 65.8137 92.4408C67.3148 91.4744 70.8346 89.4377 78.1353 85.5303C92.7993 77.682 101.267 66.9422 99.6149 52.6913C98.2931 41.2906 90.5274 34.4474 86.8098 32.4509C78.6861 27.7695 60.7864 17.4565 54.1773 13.6563C45.916 8.906 42.818 10.9713 32.6978 16.3412C24.6017 20.6372 22.9908 26.668 23.1974 29.1464C23.1974 27.8871 24.8661 26.1111 25.6757 25.8418C28.1856 25.007 33.5287 28.5217 45.7094 35.549Z" fill="url(#paint0_linear_797_761)"/>
<path d="M16.665 37.1262C18.6393 37.9376 20.8054 36.4859 20.8054 34.3514V29.6817C20.8054 28.893 20.3419 28.178 19.6219 27.856L15.225 25.8895C13.2405 25.0019 11.0003 26.454 11.0002 28.628L11.0001 33.4576C11 34.2686 11.4897 34.9993 12.2398 35.3075L16.665 37.1262Z" fill="url(#paint1_linear_797_761)"/>
<path d="M23.9897 43.4853C23.9897 45.7057 25.2159 47.7446 27.1772 48.7853L43.1086 57.2392C44.4407 57.9461 46.0461 56.9805 46.0461 55.4725L46.0461 45.8354C46.0461 43.5903 44.7927 41.5331 42.7976 40.5035L28.3654 33.0561C26.3687 32.0257 23.9897 33.4751 23.9897 35.722V43.4853Z" fill="url(#paint2_linear_797_761)"/>
<path d="M23.1974 74.7905C23.1974 74.7905 25.2628 97.7158 46.9489 98.955C53.8122 99.3472 60.01 97.1575 64.9171 93.1967C65.221 92.9515 65.5199 92.6994 65.8137 92.4408C67.3077 91.1256 68.6699 89.6398 69.8809 88.0087C51.0504 88.6696 45.7094 75.7035 45.7094 67.4421L45.7094 67.019C45.7094 64.16 44.1797 61.5168 41.7092 60.078C32.3174 54.6084 27.892 51.9541 25.6757 52.6913C24.8661 52.9606 23.1974 53.625 23.1974 55.9959L23.1974 74.7905Z" fill="url(#paint3_linear_797_761)"/>
<path d="M260.623 64.6091V24.4752H268.478V57.3678H278.465V64.6091H260.623Z" fill="#6962F1"/>
<path d="M289.597 30.9571C286.774 30.9571 284.749 28.932 284.749 26.1091C284.749 23.2863 286.774 21.1998 289.597 21.1998C292.42 21.1998 294.445 23.2863 294.445 26.1091C294.445 28.932 292.42 30.9571 289.597 30.9571Z" fill="#6962F1"/>
<path d="M284.749 64.6091V48.8378C284.749 38.7123 290.763 33.4961 299.722 33.4961C308.682 33.4961 314.696 38.6509 314.696 48.8378V64.6091H307.393V48.8378C307.393 43.0694 304.325 40.3078 299.722 40.3078C295.12 40.3078 292.051 43.0694 292.051 48.8378V64.6091H284.749Z" fill="#6962F1"/>
<path d="M321.749 64.6091V21.0387H329.052V47.5491L341.08 34.2939H350.407L336.17 49.1447L350.96 64.6091H341.448L329.052 50.9243V64.6091H321.749Z" fill="#6962F1"/>
<path d="M126.5 63.1123V20.9188H134.758V63.1123H126.5Z" fill="#6962F1"/>
<path d="M142.285 63.1123V46.5317C142.285 35.8865 148.608 30.4026 158.027 30.4026C167.447 30.4026 173.769 35.822 173.769 46.5317V63.1123H166.092V46.5317C166.092 40.4671 162.866 37.5639 158.027 37.5639C153.189 37.5639 149.963 40.4671 149.963 46.5317V63.1123H142.285Z" fill="#6962F1"/>
<path d="M218.452 63.951C208.388 63.951 201.291 56.8542 201.291 47.1768C201.291 37.4994 208.388 30.4026 218.452 30.4026C228.517 30.4026 235.485 37.4994 235.485 47.1768V49.8865H209.355C210.388 54.5317 213.936 56.9833 218.452 56.9833C221.872 56.9833 224.388 56.0155 226.001 53.951H234.194C231.807 60.0155 226.001 63.951 218.452 63.951ZM209.549 43.7575H227.355C226.13 39.4994 222.646 37.3704 218.452 37.3704C214.13 37.3704 210.775 39.5639 209.549 43.7575Z" fill="#6962F1"/>
<path d="M193.12 63.951C185.378 63.951 180.088 59.693 180.088 50.8542V19.951H187.765V31.2413H195.818V38.2091H187.765V50.8542C187.765 55.1123 189.959 56.7897 193.12 56.7897C194.132 56.7897 195.044 56.6245 195.818 56.2582V63.7634C194.958 63.8887 194.057 63.951 193.12 63.951Z" fill="#6962F1"/>
<path d="M240.51 63.1123V44.5962C240.51 34.9833 246.187 30.4026 254.51 30.4026V37.5639C250.768 37.5639 248.187 39.4349 248.187 44.5962V63.1123H240.51Z" fill="#6962F1"/>
<path d="M159.403 87.049V83.6192L156.342 78.726H157.503L159.174 81.4184C159.431 81.8318 159.671 82.2451 159.911 82.6529C160.151 82.2451 160.397 81.8318 160.648 81.4184L162.313 78.726H163.469L160.408 83.6192V87.049H159.403ZM165.26 87.183C163.623 87.183 162.523 85.9095 162.523 84.1108C162.523 82.301 163.623 81.0162 165.26 81.0162C166.896 81.0162 167.997 82.301 167.997 84.1108C167.997 85.9095 166.896 87.183 165.26 87.183ZM165.26 86.3228C166.377 86.3228 167.036 85.4458 167.036 84.1108C167.036 82.7646 166.371 81.8765 165.26 81.8765C164.148 81.8765 163.483 82.759 163.483 84.1108C163.483 85.4514 164.143 86.3228 165.26 86.3228ZM170.927 87.1607C169.737 87.1607 168.76 86.3843 168.76 84.8146V81.1503H169.709V84.7476C169.709 85.7698 170.223 86.2893 171.106 86.2893C171.966 86.2893 172.659 85.7922 172.659 84.6024V81.1503H173.608V87.049H172.681V86.1832C172.273 86.8535 171.675 87.1607 170.927 87.1607ZM174.673 87.049V81.1503H175.578V82.0775H175.6C175.818 81.4687 176.281 81.0609 177.019 81.0609C177.192 81.0609 177.343 81.0833 177.421 81.0944V82.044C177.343 82.0217 177.114 81.977 176.84 81.977C176.186 81.977 175.622 82.4183 175.622 83.4182V87.049H174.673ZM180.656 87.049V78.726H185.89V79.6198H181.661V82.3401H185.555V83.2338H181.661V87.049H180.656ZM188.166 87.1384C186.993 87.1384 186.111 86.5295 186.111 85.3509C186.111 83.9991 187.273 83.7533 188.457 83.5969C189.58 83.4461 189.943 83.4908 189.943 83.0383V82.9825C189.943 82.3401 189.462 81.8765 188.636 81.8765C187.814 81.8765 187.245 82.3289 187.2 82.9154H186.234C186.284 81.8374 187.239 81.0386 188.636 81.0386C190.01 81.0386 190.881 81.815 190.881 82.9825V87.049H189.943V86.2111H189.92C189.702 86.6356 189.239 87.1384 188.166 87.1384ZM188.3 86.2893C189.462 86.2893 189.943 85.5855 189.943 84.8146V84.0773C189.797 84.2114 189.088 84.3175 188.412 84.4124C187.731 84.5074 187.083 84.742 187.083 85.4067C187.083 85.9597 187.546 86.2893 188.3 86.2893ZM194.381 87.183C192.744 87.183 191.644 85.9095 191.644 84.1108C191.644 82.301 192.744 81.0162 194.381 81.0162C195.722 81.0162 196.705 81.882 196.867 83.0718H195.906C195.766 82.3792 195.252 81.8765 194.381 81.8765C193.269 81.8765 192.605 82.759 192.605 84.1108C192.605 85.4514 193.264 86.3228 194.381 86.3228C195.264 86.3228 195.705 85.848 195.889 85.1274H196.867C196.705 86.2893 195.71 87.183 194.381 87.183ZM200.026 87.183C198.294 87.183 197.289 85.8871 197.289 84.1108C197.289 82.3177 198.395 81.0162 199.959 81.0162C201.601 81.0162 202.64 82.2786 202.64 84.1108V84.3733H198.227C198.272 85.5296 198.909 86.3228 200.026 86.3228C200.864 86.3228 201.411 85.8983 201.59 85.2838H202.539C202.316 86.4122 201.311 87.183 200.026 87.183ZM198.238 83.5578H201.69C201.59 82.5188 200.931 81.8653 199.959 81.8653C198.992 81.8653 198.339 82.5188 198.238 83.5578ZM203.933 87.1439C203.542 87.1439 203.235 86.8367 203.235 86.4457C203.235 86.0547 203.542 85.7475 203.933 85.7475C204.324 85.7475 204.632 86.0547 204.632 86.4457C204.632 86.8367 204.324 87.1439 203.933 87.1439ZM210.537 87.049V83.6192L207.476 78.726H208.637L210.308 81.4184C210.565 81.8318 210.805 82.2451 211.045 82.6529C211.285 82.2451 211.531 81.8318 211.782 81.4184L213.447 78.726H214.603L211.542 83.6192V87.049H210.537ZM216.394 87.183C214.757 87.183 213.657 85.9095 213.657 84.1108C213.657 82.301 214.757 81.0162 216.394 81.0162C218.03 81.0162 219.131 82.301 219.131 84.1108C219.131 85.9095 218.03 87.183 216.394 87.183ZM216.394 86.3228C217.511 86.3228 218.17 85.4458 218.17 84.1108C218.17 82.7646 217.505 81.8765 216.394 81.8765C215.282 81.8765 214.617 82.759 214.617 84.1108C214.617 85.4514 215.277 86.3228 216.394 86.3228ZM222.061 87.1607C220.871 87.1607 219.894 86.3843 219.894 84.8146V81.1503H220.843V84.7476C220.843 85.7698 221.357 86.2893 222.24 86.2893C223.1 86.2893 223.793 85.7922 223.793 84.6024V81.1503H224.742V87.049H223.815V86.1832C223.407 86.8535 222.81 87.1607 222.061 87.1607ZM225.807 87.049V81.1503H226.712V82.0775H226.734C226.952 81.4687 227.415 81.0609 228.153 81.0609C228.326 81.0609 228.477 81.0833 228.555 81.0944V82.044C228.477 82.0217 228.248 81.977 227.974 81.977C227.32 81.977 226.756 82.4183 226.756 83.4182V87.049H225.807ZM232.795 78.726V87.049H231.79V78.726H232.795ZM236.239 87.1607C234.703 87.1607 233.681 85.915 233.681 84.0996C233.681 82.2786 234.703 81.0386 236.239 81.0386C237.005 81.0386 237.703 81.3626 238.083 82.0217H238.094V78.726H239.043V87.049H238.116V86.1552H238.105C237.68 86.8367 237.005 87.1607 236.239 87.1607ZM236.385 86.3061C237.479 86.3061 238.172 85.4347 238.172 84.0996C238.172 82.7646 237.479 81.8876 236.385 81.8876C235.362 81.8876 234.642 82.6529 234.642 84.0996C234.642 85.5464 235.362 86.3061 236.385 86.3061ZM242.543 87.183C240.812 87.183 239.806 85.8871 239.806 84.1108C239.806 82.3177 240.912 81.0162 242.476 81.0162C244.119 81.0162 245.158 82.2786 245.158 84.1108V84.3733H240.745C240.789 85.5296 241.426 86.3228 242.543 86.3228C243.381 86.3228 243.929 85.8983 244.107 85.2838H245.057C244.834 86.4122 243.828 87.183 242.543 87.183ZM240.756 83.5578H244.208C244.107 82.5188 243.448 81.8653 242.476 81.8653C241.51 81.8653 240.856 82.5188 240.756 83.5578ZM246.848 83.5969V87.049H245.898V81.1503H246.825V82.0161C247.233 81.3458 247.831 81.0386 248.579 81.0386C249.769 81.0386 250.747 81.815 250.747 83.3846V87.049H249.797V83.4517C249.797 82.4295 249.283 81.91 248.4 81.91C247.54 81.91 246.848 82.4071 246.848 83.5969ZM254.386 81.1503V81.9658H253.191V85.619C253.191 86.077 253.353 86.2334 253.839 86.2334H254.386V87.049H253.749C252.738 87.049 252.241 86.6077 252.241 85.7195V81.9658H251.191V81.1503H252.241V79.5416H253.191V81.1503H254.386ZM255.032 87.049V81.1503H255.981V87.049H255.032ZM255.506 79.9996C255.149 79.9996 254.858 79.7091 254.858 79.3516C254.858 78.9941 255.149 78.7037 255.506 78.7037C255.864 78.7037 256.154 78.9941 256.154 79.3516C256.154 79.7091 255.864 79.9996 255.506 79.9996ZM259.732 81.1503V81.9658H258.537V85.619C258.537 86.077 258.699 86.2334 259.185 86.2334H259.732V87.049H259.096C258.085 87.049 257.587 86.6077 257.587 85.7195V81.9658H256.537V81.1503H257.587V79.5416H258.537V81.1503H259.732ZM260.758 89.3839V88.546H261.339C261.702 88.546 261.948 88.3281 262.137 87.8366L262.461 86.9987L260.177 81.1503H261.205L262.478 84.5465C262.646 84.9878 262.802 85.4291 262.953 85.8704C263.109 85.4291 263.271 84.9878 263.433 84.5465L264.685 81.1503H265.696L262.975 88.1438C262.668 88.937 262.082 89.3839 261.339 89.3839H260.758ZM266.051 87.1439C265.66 87.1439 265.353 86.8367 265.353 86.4457C265.353 86.0547 265.66 85.7475 266.051 85.7475C266.442 85.7475 266.749 86.0547 266.749 86.4457C266.749 86.8367 266.442 87.1439 266.051 87.1439ZM272.654 87.049V83.6192L269.593 78.726H270.755L272.425 81.4184C272.682 81.8318 272.922 82.2451 273.162 82.6529C273.402 82.2451 273.648 81.8318 273.9 81.4184L275.564 78.726H276.72L273.659 83.6192V87.049H272.654ZM278.511 87.183C276.874 87.183 275.774 85.9095 275.774 84.1108C275.774 82.301 276.874 81.0162 278.511 81.0162C280.148 81.0162 281.248 82.301 281.248 84.1108C281.248 85.9095 280.148 87.183 278.511 87.183ZM278.511 86.3228C279.628 86.3228 280.287 85.4458 280.287 84.1108C280.287 82.7646 279.623 81.8765 278.511 81.8765C277.399 81.8765 276.735 82.759 276.735 84.1108C276.735 85.4514 277.394 86.3228 278.511 86.3228ZM284.178 87.1607C282.988 87.1607 282.011 86.3843 282.011 84.8146V81.1503H282.961V84.7476C282.961 85.7698 283.474 86.2893 284.357 86.2893C285.217 86.2893 285.91 85.7922 285.91 84.6024V81.1503H286.859V87.049H285.932V86.1832C285.524 86.8535 284.927 87.1607 284.178 87.1607ZM287.924 87.049V81.1503H288.829V82.0775H288.851C289.069 81.4687 289.533 81.0609 290.27 81.0609C290.443 81.0609 290.594 81.0833 290.672 81.0944V82.044C290.594 82.0217 290.365 81.977 290.091 81.977C289.438 81.977 288.874 82.4183 288.874 83.4182V87.049H287.924ZM295.46 87.049L293.192 78.726H294.209L295.555 83.9209C295.739 84.6303 295.901 85.3397 296.052 86.0491C296.197 85.3397 296.37 84.6303 296.555 83.9209L297.929 78.726H299.091L300.454 83.9209C300.638 84.6191 300.811 85.3174 300.962 86.0156C301.107 85.3174 301.28 84.6191 301.459 83.9209L302.8 78.726H303.828L301.549 87.049H300.376L298.918 81.6865C298.761 81.1112 298.627 80.5303 298.504 79.9549C298.381 80.5303 298.253 81.1112 298.097 81.6865L296.644 87.049H295.46ZM306.154 87.183C304.518 87.183 303.417 85.9095 303.417 84.1108C303.417 82.301 304.518 81.0162 306.154 81.0162C307.791 81.0162 308.892 82.301 308.892 84.1108C308.892 85.9095 307.791 87.183 306.154 87.183ZM306.154 86.3228C307.272 86.3228 307.931 85.4458 307.931 84.1108C307.931 82.7646 307.266 81.8765 306.154 81.8765C305.043 81.8765 304.378 82.759 304.378 84.1108C304.378 85.4514 305.037 86.3228 306.154 86.3228ZM309.654 87.049V81.1503H310.559V82.0775H310.582C310.799 81.4687 311.263 81.0609 312 81.0609C312.174 81.0609 312.324 81.0833 312.403 81.0944V82.044C312.324 82.0217 312.095 81.977 311.822 81.977C311.168 81.977 310.604 82.4183 310.604 83.4182V87.049H309.654ZM313.836 78.726V87.049H312.886V78.726H313.836ZM317.157 87.1607C315.621 87.1607 314.599 85.915 314.599 84.0996C314.599 82.2786 315.621 81.0386 317.157 81.0386C317.922 81.0386 318.62 81.3626 319 82.0217H319.011V78.726H319.961V87.049H319.034V86.1552H319.023C318.598 86.8367 317.922 87.1607 317.157 87.1607ZM317.302 86.3061C318.397 86.3061 319.09 85.4347 319.09 84.0996C319.09 82.7646 318.397 81.8876 317.302 81.8876C316.28 81.8876 315.559 82.6529 315.559 84.0996C315.559 85.5464 316.28 86.3061 317.302 86.3061Z" fill="white"/>
<defs>
<linearGradient id="paint0_linear_797_761" x1="22.4964" y1="55.2301" x2="25.6073" y2="31.6833" gradientUnits="userSpaceOnUse">
<stop stop-color="#6A6AEA"/>
<stop offset="1" stop-color="#B9B9FE"/>
</linearGradient>
<linearGradient id="paint1_linear_797_761" x1="22.4964" y1="55.2301" x2="25.6073" y2="31.6833" gradientUnits="userSpaceOnUse">
<stop stop-color="#6A6AEA"/>
<stop offset="1" stop-color="#B9B9FE"/>
</linearGradient>
<linearGradient id="paint2_linear_797_761" x1="22.4964" y1="55.2301" x2="25.6073" y2="31.6833" gradientUnits="userSpaceOnUse">
<stop stop-color="#6A6AEA"/>
<stop offset="1" stop-color="#B9B9FE"/>
</linearGradient>
<linearGradient id="paint3_linear_797_761" x1="22.4964" y1="55.2301" x2="25.6073" y2="31.6833" gradientUnits="userSpaceOnUse">
<stop stop-color="#6A6AEA"/>
<stop offset="1" stop-color="#B9B9FE"/>
</linearGradient>
</defs>
</svg>
